# 3ds Max Wavefront OBJ Exporter v0.97b - (c)2007 guruware
# 创建的文件:12.11.2022 15:30:09

#
# object XianRenZhang1
#

v  0.0000 21.3381 -0.0000
v  -1.5769 21.0028 -0.0079
v  -1.2804 21.0028 0.9205
v  -0.4948 21.0028 1.4973
v  0.4797 21.0028 1.5022
v  1.2711 21.0028 0.9333
v  1.5769 21.0028 0.0079
v  1.2804 21.0028 -0.9205
v  0.4948 21.0028 -1.4973
v  -0.4797 21.0028 -1.5022
v  -1.2711 21.0028 -0.9333
v  -2.9994 20.0296 -0.0151
v  -2.4355 20.0296 1.7508
v  -0.9412 20.0296 2.8480
v  0.9125 20.0296 2.8573
v  2.4177 20.0296 1.7752
v  2.9994 20.0296 0.0151
v  2.4355 20.0296 -1.7508
v  0.9412 20.0296 -2.8480
v  -0.9125 20.0296 -2.8573
v  -2.4177 20.0296 -1.7752
v  -4.1284 18.1720 -0.0208
v  -3.3521 18.1720 2.4098
v  -1.2955 18.1720 3.9199
v  1.2560 18.1720 3.9327
v  3.3277 18.1720 2.4434
v  4.1284 18.1720 0.0208
v  3.3521 18.1720 -2.4098
v  1.2955 18.1720 -3.9199
v  -1.2560 18.1720 -3.9327
v  -3.3277 18.1720 -2.4434
v  -4.4361 15.9139 -0.0223
v  -3.6020 15.9139 2.5894
v  -1.3920 15.9139 4.2121
v  1.3496 15.9139 4.2259
v  3.5758 15.9139 2.6255
v  4.4361 15.9139 0.0223
v  3.6020 15.9139 -2.5894
v  1.3920 15.9139 -4.2121
v  -1.3496 15.9139 -4.2259
v  -3.5758 15.9139 -2.6255
v  -3.5547 4.6476 -0.0179
v  -2.8864 4.6476 2.0750
v  -1.1155 4.6476 3.3752
v  1.0815 4.6476 3.3863
v  2.8653 4.6476 2.1039
v  3.5547 4.6476 0.0179
v  2.8864 4.6476 -2.0750
v  1.1155 4.6476 -3.3752
v  -1.0815 4.6476 -3.3863
v  -2.8653 4.6476 -2.1039
v  -2.2097 0.0000 -0.0111
v  -1.7942 0.0000 1.2898
v  -0.6934 0.0000 2.0981
v  0.6723 0.0000 2.1050
v  1.7811 0.0000 1.3078
v  2.2097 0.0000 0.0111
v  1.7942 0.0000 -1.2898
v  0.6934 0.0000 -2.0981
v  -0.6723 0.0000 -2.1050
v  -1.7811 0.0000 -1.3078
v  7.3519 17.2242 0.0370
v  6.3541 16.9569 0.0320
v  6.7258 16.9569 0.8139
v  7.5690 16.9569 1.0108
v  8.2486 16.9569 0.4744
v  8.2530 16.9569 -0.3914
v  7.5788 16.9569 -0.9347
v  6.7337 16.9569 -0.7462
v  6.2676 16.2264 1.3827
v  5.6237 16.2264 0.0283
v  7.7279 16.2264 1.7238
v  8.9051 16.2264 0.7946
v  8.9127 16.2264 -0.7050
v  7.7449 16.2264 -1.6459
v  6.2811 16.2264 -1.3196
v  6.0998 15.2287 1.5909
v  5.3563 15.2287 0.0269
v  7.7861 15.2287 1.9847
v  9.1454 15.2287 0.9118
v  9.1541 15.2287 -0.8198
v  7.8057 15.2287 -1.9063
v  6.1155 15.2287 -1.5295
v  6.0573 9.5664 1.5361
v  5.4352 9.9258 0.0273
v  7.4705 8.7589 1.9151
v  8.6105 8.1114 0.8789
v  8.6189 8.1114 -0.7922
v  7.4894 8.7589 -1.8398
v  6.0725 9.5664 -1.4751
v  5.1241 9.0244 0.0258
v  5.6948 8.6520 1.4698
v  6.9915 7.8153 1.8323
v  8.0379 7.1442 0.8402
v  8.0459 7.1442 -0.7593
v  7.0096 7.8153 -1.7619
v  5.7092 8.6520 -1.4125
v  5.0586 7.9241 1.3766
v  4.6091 8.3879 0.0232
v  1.9373 6.3369 0.0097
v  2.0295 5.9998 0.7380
v  6.0824 6.8819 1.7155
v  2.2440 5.2424 0.9188
v  6.9094 6.0461 0.7846
v  2.4192 4.6349 0.4160
v  6.9169 6.0461 -0.7151
v  2.4233 4.6349 -0.3917
v  6.0993 6.8819 -1.6542
v  2.2531 5.2424 -0.8962
v  5.0722 7.9241 -1.3257
v  2.0368 5.9998 -0.7175
v  -6.8107 23.0329 -5.5640
v  -5.8328 22.6983 -4.7874
v  -5.5938 22.6983 -5.8444
v  -6.2712 22.6983 -6.6902
v  -7.3548 22.6983 -6.6880
v  -8.0287 22.6983 -5.8394
v  -7.7854 22.6983 -4.7835
v  -6.8082 22.6983 -4.3153
v  -4.7030 21.7841 -6.0496
v  -5.1169 21.7841 -4.2189
v  -5.8762 21.7841 -7.5147
v  -7.7531 21.7841 -7.5109
v  -8.9204 21.7841 -6.0411
v  -8.4990 21.7841 -4.2120
v  -6.8063 21.7841 -3.4011
v  -4.3769 20.5354 -6.1247
v  -4.8549 20.5354 -4.0108
v  -5.7316 20.5354 -7.8164
v  -7.8989 20.5354 -7.8120
v  -9.2467 20.5354 -6.1149
v  -8.7602 20.5354 -4.0029
v  -6.8056 20.5354 -3.0665
v  -4.3775 13.4488 -6.0380
v  -4.9322 13.8985 -4.0722
v  -5.4749 12.4382 -7.5038
v  -7.3980 11.6277 -7.3659
v  -8.6987 11.6277 -5.7280
v  -8.3975 12.4382 -3.8236
v  -6.7213 13.4488 -3.0867
v  -4.6273 12.7704 -3.8301
v  -4.0720 12.3044 -5.6923
v  -5.0676 11.2571 -7.0519
v  -6.8645 10.4173 -6.8850
v  -8.1095 10.4173 -5.3173
v  -7.8652 11.2571 -3.5293
v  -6.3154 12.3044 -2.8674
v  -3.5181 11.3933 -5.1086
v  -4.1225 11.9738 -3.4292
v  -1.5039 9.4069 -1.3496
v  -1.0315 8.9850 -2.1375
v  -4.2634 10.0889 -6.2338
v  -1.1026 8.0370 -2.4813
v  -5.7971 9.0429 -5.9575
v  -1.6639 7.2768 -2.1221
v  -6.9644 9.0429 -4.4877
v  -2.2926 7.2768 -1.3305
v  -6.8862 10.0889 -2.9312
v  -2.5153 8.0370 -0.7025
v  -5.6215 11.3933 -2.4601
v  -2.1643 8.9850 -0.7110
v  0.0000 0.0000 -0.0000
# 162 vertices

vn -0.2079 0.9759 0.0664
vn -0.1291 0.9759 0.1759
vn -0.0011 0.9759 0.2182
vn 0.1274 0.9759 0.1772
vn 0.2072 0.9759 0.0685
vn 0.2079 0.9759 -0.0664
vn 0.1291 0.9759 -0.1759
vn 0.0011 0.9759 -0.2182
vn -0.1274 0.9759 -0.1772
vn -0.2072 0.9759 -0.0685
vn -0.5563 0.8118 0.1776
vn -0.3456 0.8118 0.4707
vn -0.0029 0.8118 0.5839
vn 0.3408 0.8118 0.4741
vn 0.5544 0.8118 0.1832
vn 0.5563 0.8118 -0.1776
vn 0.3456 0.8118 -0.4707
vn 0.0029 0.8118 -0.5839
vn -0.3408 0.8118 -0.4741
vn -0.5544 0.8118 -0.1832
vn -0.8247 0.5004 0.2634
vn -0.5124 0.5004 0.6979
vn -0.0044 0.5004 0.8658
vn 0.5054 0.5004 0.7030
vn 0.8221 0.5004 0.2717
vn 0.8247 0.5004 -0.2634
vn 0.5124 0.5004 -0.6979
vn 0.0044 0.5004 -0.8658
vn -0.5054 0.5004 -0.7030
vn -0.8221 0.5004 -0.2717
vn -0.9447 0.1285 0.3017
vn -0.5869 0.1285 0.7994
vn -0.0050 0.1285 0.9917
vn 0.5789 0.1285 0.8052
vn 0.9416 0.1285 0.3112
vn 0.9447 0.1285 -0.3017
vn 0.5869 0.1285 -0.7994
vn 0.0050 0.1285 -0.9917
vn -0.5789 0.1285 -0.8052
vn -0.9416 0.1285 -0.3112
vn -0.9500 -0.0742 0.3034
vn -0.5902 -0.0742 0.8038
vn -0.0050 -0.0742 0.9972
vn 0.5821 -0.0742 0.8097
vn 0.9469 -0.0742 0.3129
vn 0.9500 -0.0742 -0.3034
vn 0.5902 -0.0742 -0.8038
vn 0.0050 -0.0742 -0.9972
vn -0.5821 -0.0742 -0.8097
vn -0.9469 -0.0742 -0.3129
vn -0.9184 -0.2654 0.2933
vn -0.5706 -0.2654 0.7771
vn -0.0048 -0.2654 0.9641
vn 0.5628 -0.2654 0.7828
vn 0.9154 -0.2654 0.3025
vn 0.9184 -0.2654 -0.2933
vn 0.5706 -0.2654 -0.7771
vn 0.0048 -0.2654 -0.9641
vn -0.5628 -0.2654 -0.7828
vn -0.9154 -0.2654 -0.3025
vn -0.2575 0.9585 0.1224
vn -0.0648 0.9585 0.2776
vn 0.1766 0.9585 0.2238
vn 0.2851 0.9585 0.0014
vn 0.1789 0.9585 -0.2220
vn -0.0620 0.9585 -0.2782
vn -0.2562 0.9585 -0.1250
vn -0.6710 0.6694 0.3190
vn -0.1690 0.6694 0.7235
vn 0.4603 0.6694 0.5832
vn 0.7429 0.6694 0.0037
vn 0.4661 0.6694 -0.5785
vn -0.1617 0.6694 -0.7251
vn -0.6677 0.6694 -0.3257
vn -0.8779 0.2347 0.4174
vn -0.2211 0.2347 0.9466
vn 0.6022 0.2347 0.7630
vn 0.9721 0.2347 0.0049
vn 0.6099 0.2347 -0.7569
vn -0.2115 0.2347 -0.9488
vn -0.8737 0.2347 -0.4262
vn -0.9140 -0.0050 0.4056
vn -0.2426 -0.0028 0.9701
vn 0.6373 -0.0457 0.7693
vn 0.9972 -0.0750 0.0050
vn 0.6450 -0.0457 -0.7628
vn -0.2328 -0.0028 -0.9725
vn -0.9099 -0.0050 -0.4148
vn -0.8557 0.3017 0.4204
vn -0.2450 0.0332 0.9690
vn 0.5228 -0.3374 0.7829
vn 0.8604 -0.5096 0.0043
vn 0.5306 -0.3374 -0.7776
vn -0.2352 0.0332 -0.9714
vn -0.8514 0.3017 -0.4290
vn -0.5508 0.7209 0.4207
vn -0.2543 0.1027 0.9617
vn 0.1335 -0.6502 0.7479
vn 0.2997 -0.9540 0.0015
vn 0.1410 -0.6502 -0.7465
vn -0.2446 0.1027 -0.9642
vn -0.5465 0.7209 -0.4262
vn -0.7059 0.5656 0.4265
vn -0.2241 0.0857 0.9708
vn 0.4114 -0.4785 0.7757
vn 0.6973 -0.7167 0.0035
vn 0.4192 -0.4785 -0.7716
vn -0.2143 0.0857 -0.9730
vn -0.7015 0.5656 -0.4336
vn 0.2780 0.9585 0.0629
vn 0.2225 0.9585 -0.1782
vn -0.0006 0.9585 -0.2851
vn -0.2232 0.9585 -0.1773
vn -0.2778 0.9585 0.0640
vn -0.1232 0.9585 0.2571
vn 0.1242 0.9585 0.2566
vn 0.7246 0.6694 0.1638
vn 0.5799 0.6694 -0.4644
vn -0.0015 0.6694 -0.7429
vn -0.5818 0.6694 -0.4620
vn -0.7240 0.6694 0.1668
vn -0.3210 0.6694 0.6700
vn 0.3237 0.6694 0.6687
vn 0.9481 0.2347 0.2144
vn 0.7588 0.2347 -0.6076
vn -0.0020 0.2347 -0.9721
vn -0.7612 0.2347 -0.6045
vn -0.9473 0.2347 0.2182
vn -0.4200 0.2347 0.8767
vn 0.4235 0.2347 0.8750
vn 0.9693 -0.0050 0.2459
vn 0.7902 -0.0028 -0.6128
vn -0.0257 -0.0457 -0.9986
vn -0.7809 -0.0750 -0.6202
vn -0.9785 -0.0457 0.2011
vn -0.4179 -0.0028 0.9085
vn 0.4590 -0.0050 0.8884
vn 0.9326 0.3017 0.1982
vn 0.7914 0.0332 -0.6104
vn 0.0728 -0.3374 -0.9385
vn -0.6738 -0.5096 -0.5351
vn -0.8977 -0.3374 0.2834
vn -0.4154 0.0332 0.9091
vn 0.4043 0.3017 0.8634
vn 0.6930 0.7209 0.0096
vn 0.7942 0.1027 -0.5989
vn 0.3572 -0.6502 -0.6705
vn -0.2347 -0.9540 -0.1864
vn -0.5722 -0.6502 0.4998
vn -0.4035 0.1027 0.9092
vn 0.1663 0.7209 0.6728
vn 0.8185 0.5656 0.1009
vn 0.7761 0.0857 -0.6248
vn 0.1559 -0.4785 -0.8641
vn -0.5461 -0.7167 -0.4337
vn -0.8064 -0.4785 0.3476
vn -0.4328 0.0857 0.8974
vn 0.2836 0.5656 0.7744
vn 0.0000 -1.0000 -0.0000
# 159 vertex normals

vt 0.5025 0.9264 0.0000
vt 0.4168 0.9119 0.0000
vt 0.4329 0.9119 0.0000
vt 0.4756 0.9119 0.0000
vt 0.5286 0.9119 0.0000
vt 0.5716 0.9119 0.0000
vt 0.5882 0.9119 0.0000
vt 0.5721 0.9119 0.0000
vt 0.5294 0.9119 0.0000
vt 0.4764 0.9119 0.0000
vt 0.4334 0.9119 0.0000
vt 0.3395 0.8696 0.0000
vt 0.3702 0.8696 0.0000
vt 0.4514 0.8696 0.0000
vt 0.5521 0.8696 0.0000
vt 0.6339 0.8696 0.0000
vt 0.6655 0.8696 0.0000
vt 0.6349 0.8696 0.0000
vt 0.5537 0.8696 0.0000
vt 0.4529 0.8696 0.0000
vt 0.3711 0.8696 0.0000
vt 0.2782 0.7890 0.0000
vt 0.3203 0.7890 0.0000
vt 0.4321 0.7890 0.0000
vt 0.5708 0.7890 0.0000
vt 0.6834 0.7890 0.0000
vt 0.7269 0.7890 0.0000
vt 0.6847 0.7890 0.0000
vt 0.5729 0.7890 0.0000
vt 0.4343 0.7890 0.0000
vt 0.3217 0.7890 0.0000
vt 0.2614 0.6909 0.0000
vt 0.3068 0.6909 0.0000
vt 0.4269 0.6909 0.0000
vt 0.5759 0.6909 0.0000
vt 0.6968 0.6909 0.0000
vt 0.7436 0.6909 0.0000
vt 0.6983 0.6909 0.0000
vt 0.5782 0.6909 0.0000
vt 0.4292 0.6909 0.0000
vt 0.3082 0.6909 0.0000
vt 0.3093 0.2018 0.0000
vt 0.3457 0.2018 0.0000
vt 0.4419 0.2018 0.0000
vt 0.5613 0.2018 0.0000
vt 0.6582 0.2018 0.0000
vt 0.6957 0.2018 0.0000
vt 0.6594 0.2018 0.0000
vt 0.5631 0.2018 0.0000
vt 0.4437 0.2018 0.0000
vt 0.3468 0.2018 0.0000
vt 0.3824 -0.0000 0.0000
vt 0.4050 -0.0000 0.0000
vt 0.4648 -0.0000 0.0000
vt 0.5391 -0.0000 0.0000
vt 0.5993 -0.0000 0.0000
vt 0.6226 -0.0000 0.0000
vt 0.6000 -0.0000 0.0000
vt 0.5402 -0.0000 0.0000
vt 0.4660 -0.0000 0.0000
vt 0.4057 -0.0000 0.0000
vt 0.9021 0.7478 0.0000
vt 0.8478 0.7362 0.0000
vt 0.8680 0.7362 0.0000
vt 0.9139 0.7362 0.0000
vt 0.9508 0.7362 0.0000
vt 0.9510 0.7362 0.0000
vt 0.9144 0.7362 0.0000
vt 0.8685 0.7362 0.0000
vt 0.8431 0.7045 0.0000
vt 0.8081 0.7045 0.0000
vt 0.9225 0.7045 0.0000
vt 0.9865 0.7045 0.0000
vt 0.9869 0.7045 0.0000
vt 0.9234 0.7045 0.0000
vt 0.8439 0.7045 0.0000
vt 0.8340 0.6612 0.0000
vt 0.7936 0.6612 0.0000
vt 0.9257 0.6612 0.0000
vt 0.9995 0.6612 0.0000
vt 1.0000 0.6612 0.0000
vt 0.9267 0.6612 0.0000
vt 0.8349 0.6612 0.0000
vt 0.8317 0.4153 0.0000
vt 0.7979 0.4309 0.0000
vt 0.9085 0.3803 0.0000
vt 0.9705 0.3522 0.0000
vt 0.9709 0.3522 0.0000
vt 0.9095 0.3803 0.0000
vt 0.8325 0.4153 0.0000
vt 0.7810 0.3918 0.0000
vt 0.8120 0.3756 0.0000
vt 0.8825 0.3393 0.0000
vt 0.9393 0.3102 0.0000
vt 0.9398 0.3102 0.0000
vt 0.8835 0.3393 0.0000
vt 0.8128 0.3756 0.0000
vt 0.7774 0.3440 0.0000
vt 0.7530 0.3642 0.0000
vt 0.6078 0.2751 0.0000
vt 0.6128 0.2605 0.0000
vt 0.8331 0.2988 0.0000
vt 0.6245 0.2276 0.0000
vt 0.8780 0.2625 0.0000
vt 0.6340 0.2012 0.0000
vt 0.8784 0.2625 0.0000
vt 0.6342 0.2012 0.0000
vt 0.8340 0.2988 0.0000
vt 0.6250 0.2276 0.0000
vt 0.7782 0.3440 0.0000
vt 0.6132 0.2605 0.0000
vt 0.1324 1.0000 0.0000
vt 0.1855 0.9855 0.0000
vt 0.1985 0.9855 0.0000
vt 0.1617 0.9855 0.0000
vt 0.1028 0.9855 0.0000
vt 0.0662 0.9855 0.0000
vt 0.0794 0.9855 0.0000
vt 0.1325 0.9855 0.0000
vt 0.2469 0.9458 0.0000
vt 0.2244 0.9458 0.0000
vt 0.1832 0.9458 0.0000
vt 0.0812 0.9458 0.0000
vt 0.0177 0.9458 0.0000
vt 0.0406 0.9458 0.0000
vt 0.1326 0.9458 0.0000
vt 0.2647 0.8916 0.0000
vt 0.2387 0.8916 0.0000
vt 0.1910 0.8916 0.0000
vt 0.0732 0.8916 0.0000
vt -0.0000 0.8916 0.0000
vt 0.0264 0.8916 0.0000
vt 0.1327 0.8916 0.0000
vt 0.2646 0.5839 0.0000
vt 0.2345 0.6034 0.0000
vt 0.2050 0.5400 0.0000
vt 0.1005 0.5048 0.0000
vt 0.0298 0.5048 0.0000
vt 0.0462 0.5400 0.0000
vt 0.1372 0.5839 0.0000
vt 0.2510 0.5544 0.0000
vt 0.2812 0.5342 0.0000
vt 0.2271 0.4887 0.0000
vt 0.1295 0.4523 0.0000
vt 0.0618 0.4523 0.0000
vt 0.0751 0.4887 0.0000
vt 0.1593 0.5342 0.0000
vt 0.3113 0.4947 0.0000
vt 0.2785 0.5199 0.0000
vt 0.4208 0.4084 0.0000
vt 0.4465 0.3901 0.0000
vt 0.2708 0.4380 0.0000
vt 0.4426 0.3489 0.0000
vt 0.1875 0.3926 0.0000
vt 0.4121 0.3159 0.0000
vt 0.1240 0.3926 0.0000
vt 0.3779 0.3159 0.0000
vt 0.1283 0.4380 0.0000
vt 0.3658 0.3489 0.0000
vt 0.1970 0.4947 0.0000
vt 0.3849 0.3901 0.0000
vt 0.5025 -0.0000 0.0000
# 162 texture coords

g XianRenZhang1
s off
f 1/1/1 2/2/1 3/3/1 
f 1/1/2 3/3/2 4/4/2 
f 1/1/3 4/4/3 5/5/3 
f 1/1/4 5/5/4 6/6/4 
f 1/1/5 6/6/5 7/7/5 
f 1/1/6 7/7/6 8/8/6 
f 1/1/7 8/8/7 9/9/7 
f 1/1/8 9/9/8 10/10/8 
f 1/1/9 10/10/9 11/11/9 
f 1/1/10 11/11/10 2/2/10 
f 2/2/11 12/12/11 13/13/11 3/3/11 
f 3/3/12 13/13/12 14/14/12 4/4/12 
f 4/4/13 14/14/13 15/15/13 5/5/13 
f 5/5/14 15/15/14 16/16/14 6/6/14 
f 6/6/15 16/16/15 17/17/15 7/7/15 
f 7/7/16 17/17/16 18/18/16 8/8/16 
f 8/8/17 18/18/17 19/19/17 9/9/17 
f 9/9/18 19/19/18 20/20/18 10/10/18 
f 10/10/19 20/20/19 21/21/19 11/11/19 
f 11/11/20 21/21/20 12/12/20 2/2/20 
f 12/12/21 22/22/21 23/23/21 13/13/21 
f 13/13/22 23/23/22 24/24/22 14/14/22 
f 14/14/23 24/24/23 25/25/23 15/15/23 
f 15/15/24 25/25/24 26/26/24 16/16/24 
f 16/16/25 26/26/25 27/27/25 17/17/25 
f 17/17/26 27/27/26 28/28/26 18/18/26 
f 18/18/27 28/28/27 29/29/27 19/19/27 
f 19/19/28 29/29/28 30/30/28 20/20/28 
f 20/20/29 30/30/29 31/31/29 21/21/29 
f 21/21/30 31/31/30 22/22/30 12/12/30 
f 22/22/31 32/32/31 33/33/31 23/23/31 
f 23/23/32 33/33/32 34/34/32 24/24/32 
f 24/24/33 34/34/33 35/35/33 25/25/33 
f 25/25/34 35/35/34 36/36/34 26/26/34 
f 26/26/35 36/36/35 37/37/35 27/27/35 
f 27/27/36 37/37/36 38/38/36 28/28/36 
f 28/28/37 38/38/37 39/39/37 29/29/37 
f 29/29/38 39/39/38 40/40/38 30/30/38 
f 30/30/39 40/40/39 41/41/39 31/31/39 
f 31/31/40 41/41/40 32/32/40 22/22/40 
f 32/32/41 42/42/41 43/43/41 33/33/41 
f 33/33/42 43/43/42 44/44/42 34/34/42 
f 34/34/43 44/44/43 45/45/43 35/35/43 
f 35/35/44 45/45/44 46/46/44 36/36/44 
f 36/36/45 46/46/45 47/47/45 37/37/45 
f 37/37/46 47/47/46 48/48/46 38/38/46 
f 38/38/47 48/48/47 49/49/47 39/39/47 
f 39/39/48 49/49/48 50/50/48 40/40/48 
f 40/40/49 50/50/49 51/51/49 41/41/49 
f 41/41/50 51/51/50 42/42/50 32/32/50 
f 42/42/51 52/52/51 53/53/51 43/43/51 
f 43/43/52 53/53/52 54/54/52 44/44/52 
f 44/44/53 54/54/53 55/55/53 45/45/53 
f 45/45/54 55/55/54 56/56/54 46/46/54 
f 46/46/55 56/56/55 57/57/55 47/47/55 
f 47/47/56 57/57/56 58/58/56 48/48/56 
f 48/48/57 58/58/57 59/59/57 49/49/57 
f 49/49/58 59/59/58 60/60/58 50/50/58 
f 50/50/59 60/60/59 61/61/59 51/51/59 
f 51/51/60 61/61/60 52/52/60 42/42/60 
f 62/62/61 63/63/61 64/64/61 
f 62/62/62 64/64/62 65/65/62 
f 62/62/63 65/65/63 66/66/63 
f 62/62/64 66/66/64 67/67/64 
f 62/62/65 67/67/65 68/68/65 
f 62/62/66 68/68/66 69/69/66 
f 62/62/67 69/69/67 63/63/67 
f 70/70/68 64/64/68 63/63/68 71/71/68 
f 72/72/69 65/65/69 64/64/69 70/70/69 
f 73/73/70 66/66/70 65/65/70 72/72/70 
f 74/74/71 67/67/71 66/66/71 73/73/71 
f 75/75/72 68/68/72 67/67/72 74/74/72 
f 76/76/73 69/69/73 68/68/73 75/75/73 
f 71/71/74 63/63/74 69/69/74 76/76/74 
f 77/77/75 70/70/75 71/71/75 78/78/75 
f 79/79/76 72/72/76 70/70/76 77/77/76 
f 80/80/77 73/73/77 72/72/77 79/79/77 
f 81/81/78 74/74/78 73/73/78 80/80/78 
f 82/82/79 75/75/79 74/74/79 81/81/79 
f 83/83/80 76/76/80 75/75/80 82/82/80 
f 78/78/81 71/71/81 76/76/81 83/83/81 
f 84/84/82 77/77/82 78/78/82 85/85/82 
f 86/86/83 79/79/83 77/77/83 84/84/83 
f 87/87/84 80/80/84 79/79/84 86/86/84 
f 88/88/85 81/81/85 80/80/85 87/87/85 
f 89/89/86 82/82/86 81/81/86 88/88/86 
f 90/90/87 83/83/87 82/82/87 89/89/87 
f 85/85/88 78/78/88 83/83/88 90/90/88 
f 85/85/89 91/91/89 92/92/89 84/84/89 
f 84/84/90 92/92/90 93/93/90 86/86/90 
f 86/86/91 93/93/91 94/94/91 87/87/91 
f 94/94/92 95/95/92 88/88/92 87/87/92 
f 95/95/93 96/96/93 89/89/93 88/88/93 
f 96/96/94 97/97/94 90/90/94 89/89/94 
f 97/97/95 91/91/95 85/85/95 90/90/95 
f 98/98/96 99/99/96 100/100/96 101/101/96 
f 102/102/97 98/98/97 101/101/97 103/103/97 
f 104/104/98 102/102/98 103/103/98 105/105/98 
f 106/106/99 104/104/99 105/105/99 107/107/99 
f 108/108/100 106/106/100 107/107/100 109/109/100 
f 110/110/101 108/108/101 109/109/101 111/111/101 
f 99/99/102 110/110/102 111/111/102 100/100/102 
f 99/99/103 98/98/103 92/92/103 91/91/103 
f 98/98/104 102/102/104 93/93/104 92/92/104 
f 102/102/105 104/104/105 94/94/105 93/93/105 
f 104/104/106 106/106/106 95/95/106 94/94/106 
f 95/95/107 106/106/107 108/108/107 96/96/107 
f 96/96/108 108/108/108 110/110/108 97/97/108 
f 97/97/109 110/110/109 99/99/109 91/91/109 
f 112/112/110 113/113/110 114/114/110 
f 112/112/111 114/114/111 115/115/111 
f 112/112/112 115/115/112 116/116/112 
f 112/112/113 116/116/113 117/117/113 
f 112/112/114 117/117/114 118/118/114 
f 112/112/115 118/118/115 119/119/115 
f 112/112/116 119/119/116 113/113/116 
f 120/120/117 114/114/117 113/113/117 121/121/117 
f 122/122/118 115/115/118 114/114/118 120/120/118 
f 123/123/119 116/116/119 115/115/119 122/122/119 
f 124/124/120 117/117/120 116/116/120 123/123/120 
f 125/125/121 118/118/121 117/117/121 124/124/121 
f 126/126/122 119/119/122 118/118/122 125/125/122 
f 121/121/123 113/113/123 119/119/123 126/126/123 
f 127/127/124 120/120/124 121/121/124 128/128/124 
f 129/129/125 122/122/125 120/120/125 127/127/125 
f 130/130/126 123/123/126 122/122/126 129/129/126 
f 131/131/127 124/124/127 123/123/127 130/130/127 
f 132/132/128 125/125/128 124/124/128 131/131/128 
f 133/133/129 126/126/129 125/125/129 132/132/129 
f 128/128/130 121/121/130 126/126/130 133/133/130 
f 134/134/131 127/127/131 128/128/131 135/135/131 
f 136/136/132 129/129/132 127/127/132 134/134/132 
f 137/137/133 130/130/133 129/129/133 136/136/133 
f 138/138/134 131/131/134 130/130/134 137/137/134 
f 139/139/135 132/132/135 131/131/135 138/138/135 
f 140/140/136 133/133/136 132/132/136 139/139/136 
f 135/135/137 128/128/137 133/133/137 140/140/137 
f 135/135/138 141/141/138 142/142/138 134/134/138 
f 134/134/139 142/142/139 143/143/139 136/136/139 
f 136/136/140 143/143/140 144/144/140 137/137/140 
f 144/144/141 145/145/141 138/138/141 137/137/141 
f 145/145/142 146/146/142 139/139/142 138/138/142 
f 146/146/143 147/147/143 140/140/143 139/139/143 
f 147/147/144 141/141/144 135/135/144 140/140/144 
f 148/148/145 149/149/145 150/150/145 151/151/145 
f 152/152/146 148/148/146 151/151/146 153/153/146 
f 154/154/147 152/152/147 153/153/147 155/155/147 
f 156/156/148 154/154/148 155/155/148 157/157/148 
f 158/158/149 156/156/149 157/157/149 159/159/149 
f 160/160/150 158/158/150 159/159/150 161/161/150 
f 149/149/151 160/160/151 161/161/151 150/150/151 
f 149/149/152 148/148/152 142/142/152 141/141/152 
f 148/148/153 152/152/153 143/143/153 142/142/153 
f 152/152/154 154/154/154 144/144/154 143/143/154 
f 154/154/155 156/156/155 145/145/155 144/144/155 
f 145/145/156 156/156/156 158/158/156 146/146/156 
f 146/146/157 158/158/157 160/160/157 147/147/157 
f 147/147/158 160/160/158 149/149/158 141/141/158 
f 60/60/159 59/59/159 162/162/159 
f 59/59/159 58/58/159 162/162/159 
f 55/55/159 54/54/159 162/162/159 
f 162/162/159 52/52/159 61/61/159 
f 58/58/159 57/57/159 162/162/159 
f 162/162/159 54/54/159 53/53/159 
f 56/56/159 55/55/159 162/162/159 
f 162/162/159 53/53/159 52/52/159 
f 61/61/159 60/60/159 162/162/159 
f 162/162/159 57/57/159 56/56/159 
# 134 polygons - 34 triangles

