# 3ds Max Wavefront OBJ Exporter v0.97b - (c)2007 guruware
# 创建的文件:12.11.2022 15:18:52

#
# object ShiTou01
#

v  -0.7903 0.8899 0.1506
v  0.1492 0.8899 -0.6728
v  -0.4505 0.8899 -0.6860
v  0.4266 0.8899 0.7136
v  0.8283 -0.0000 1.0870
v  0.9401 -0.0000 0.4344
v  -0.5782 0.0000 -1.3549
v  -1.0999 0.0000 0.5394
v  0.6072 0.8899 0.3267
v  1.3810 -0.0000 -0.0806
v  0.4964 -0.0000 1.4050
v  0.7249 -0.0000 -0.8168
# 12 vertices

vn 0.0000 1.0000 -0.0000
vn 0.8589 0.4906 0.1471
vn 0.0170 0.6326 -0.7743
vn -0.9116 0.2939 -0.2876
vn 0.6204 0.7309 -0.2843
vn 0.5742 0.5576 0.5995
vn -0.3896 0.5761 0.7185
vn -0.3613 0.5096 0.7809
vn 0.8337 0.3919 0.3891
vn -0.0000 -1.0000 -0.0000
vn -0.0000 -1.0000 0.0000
vn 0.6274 0.5419 -0.5591
vn 0.7063 0.3683 0.6046
vn 0.3503 0.3972 -0.8483
# 14 vertex normals

vt 0.1155 0.4445 0.0000
vt 0.2510 0.4445 0.0000
vt 0.1645 0.4445 0.0000
vt 0.2910 0.4445 0.0000
vt 0.3489 0.3111 0.0000
vt 0.3651 0.3828 0.0000
vt 0.1461 0.2932 0.0000
vt 0.0326 0.3247 0.0000
vt 0.3171 0.4445 0.0000
vt 0.4286 0.2851 0.0000
vt 0.3011 0.3236 0.0000
vt 0.3340 0.3643 0.0000
# 12 texture coords

g ShiTou01
s off
f 1/1/1 2/2/1 3/3/1 
f 4/4/2 5/5/2 6/6/2 
f 2/2/3 7/7/3 3/3/3 
f 3/3/4 7/7/4 8/8/4 1/1/4 
f 2/2/5 9/9/5 10/10/5 
f 11/11/6 5/5/6 4/4/6 
f 8/8/7 11/11/7 4/4/7 8/8/7 
f 8/8/8 4/4/8 1/1/8 
f 6/6/9 9/9/9 4/4/9 
f 9/9/1 2/2/1 4/4/1 
f 1/1/1 4/4/1 2/2/1 
f 6/6/10 5/5/10 8/8/10 
f 5/5/10 11/11/10 8/8/10 
f 7/7/11 12/12/11 10/10/11 7/7/11 
f 6/6/10 8/8/10 8/8/10 7/7/10 
f 8/8/11 7/7/11 7/7/11 
f 10/10/10 6/6/10 7/7/10 
f 10/10/12 12/12/12 2/2/12 
f 9/9/13 6/6/13 10/10/13 
f 2/2/14 12/12/14 7/7/14 
# 4 polygons - 16 triangles

