# 3ds Max Wavefront OBJ Exporter v0.97b - (c)2007 guruware
# 创建的文件:12.11.2022 15:24:01

#
# object XianRenQiu
#

v  -0.0000 5.3443 -0.0000
v  -0.0132 4.9044 -1.6847
v  -1.6063 4.9044 -0.5081
v  -0.9796 4.9044 1.3706
v  1.0009 4.9044 1.3551
v  1.5981 4.9044 -0.5331
v  -2.2716 3.3500 -0.7185
v  -0.0186 3.3500 -2.3825
v  -1.3853 3.3500 1.9384
v  1.4154 3.3500 1.9165
v  2.2601 3.3500 -0.7540
v  -2.2716 1.6312 -0.7185
v  -0.0186 1.6312 -2.3825
v  -1.3853 1.6312 1.9384
v  1.4154 1.6312 1.9165
v  2.2601 1.6312 -0.7540
v  -1.6063 -0.0000 -0.5081
v  -0.0132 -0.0000 -1.6847
v  -0.9796 -0.0000 1.3706
v  1.0009 -0.0000 1.3551
v  1.5981 -0.0000 -0.5331
# 21 vertices

vn -0.1684 0.9590 -0.2281
vn -0.2690 0.9590 0.0897
vn 0.0022 0.9590 0.2835
vn 0.2703 0.9590 0.0855
vn 0.1649 0.9590 -0.2307
vn -0.5523 0.3686 -0.7478
vn -0.8818 0.3686 0.2942
vn 0.0073 0.3686 0.9296
vn 0.8863 0.3686 0.2803
vn 0.5405 0.3686 -0.7563
vn -0.5941 0.0000 -0.8044
vn -0.9486 0.0000 0.3164
vn 0.0078 0.0000 1.0000
vn 0.9534 0.0000 0.3016
vn 0.5814 0.0000 -0.8136
vn -0.5558 -0.3534 -0.7525
vn -0.8874 -0.3534 0.2960
vn 0.0073 -0.3534 0.9354
vn 0.8919 -0.3534 0.2821
vn 0.5439 -0.3534 -0.7611
vn 0.0000 -1.0000 -0.0000
# 21 vertex normals

vt 0.5000 0.5000 0.0000
vt 0.8536 0.5000 0.0000
vt 0.6093 0.8362 0.0000
vt 0.2140 0.7078 0.0000
vt 0.2140 0.2922 0.0000
vt 0.6093 0.1638 0.0000
vt 0.6545 0.9755 0.0000
vt 1.0000 0.5000 0.0000
vt 0.0955 0.7939 0.0000
vt 0.0955 0.2061 0.0000
vt 0.6545 0.0245 0.0000
vt 0.2000 0.0000 0.0000
vt 0.2000 1.0000 0.0000
vt 0.0000 1.0000 0.0000
vt 0.0000 0.0000 0.0000
vt 0.4000 0.0000 0.0000
vt 0.4000 1.0000 0.0000
vt 0.6000 0.0000 0.0000
vt 0.6000 1.0000 0.0000
vt 0.8000 0.0000 0.0000
vt 0.8000 1.0000 0.0000
vt 1.0000 0.0000 0.0000
vt 1.0000 1.0000 0.0000
# 23 texture coords

g XianRenQiu
s off
f 1/1/1 2/2/1 3/3/1 
f 1/1/2 3/3/2 4/4/2 
f 1/1/3 4/4/3 5/5/3 
f 1/1/4 5/5/4 6/6/4 
f 1/1/5 6/6/5 2/2/5 
f 7/7/6 3/3/6 2/2/6 8/8/6 
f 9/9/7 4/4/7 3/3/7 7/7/7 
f 10/10/8 5/5/8 4/4/8 9/9/8 
f 11/11/9 6/6/9 5/5/9 10/10/9 
f 8/8/10 2/2/10 6/6/10 11/11/10 
f 12/12/11 7/13/11 8/14/11 13/15/11 
f 14/16/12 9/17/12 7/13/12 12/12/12 
f 15/18/13 10/19/13 9/17/13 14/16/13 
f 16/20/14 11/21/14 10/19/14 15/18/14 
f 13/22/15 8/23/15 11/21/15 16/20/15 
f 17/3/16 12/7/16 13/8/16 18/2/16 
f 19/4/17 14/9/17 12/7/17 17/3/17 
f 20/5/18 15/10/18 14/9/18 19/4/18 
f 21/6/19 16/11/19 15/10/19 20/5/19 
f 18/2/20 13/8/20 16/11/20 21/6/20 
f 18/2/21 21/6/21 17/3/21 
f 20/5/21 19/4/21 17/3/21 
f 17/3/21 21/6/21 20/5/21 
# 15 polygons - 8 triangles

