# 3ds Max Wavefront OBJ Exporter v0.97b - (c)2007 guruware
# 创建的文件:12.11.2022 14:53:14

#
# object LiShi2Ge
#

v  13.0425 2.9216 -7.8416
v  15.8652 2.4996 0.0000
v  16.0901 0.0000 0.0000
v  13.2360 0.0000 -7.8416
v  5.8951 3.9902 -12.0140
v  6.0091 0.0000 -12.0140
v  -2.2326 5.2054 -10.5649
v  -2.2089 0.0000 -10.5649
v  -7.5376 5.9986 -4.1724
v  -7.5729 0.0000 -4.1724
v  -7.5376 5.9986 4.1724
v  -7.5729 0.0000 4.1724
v  -2.2326 5.2054 10.5649
v  -2.2089 0.0000 10.5649
v  5.8951 3.9902 12.0140
v  6.0091 0.0000 12.0140
v  13.0425 2.9216 7.8416
v  13.2360 0.0000 7.8416
v  3.8907 0.0000 0.0000
v  4.0722 6.1241 0.0000
v  0.5329 4.4645 -6.2655
v  2.7917 4.7781 0.0000
v  2.8168 0.0000 0.0000
v  0.5364 0.0000 -6.2655
v  -5.1866 3.6705 -9.5993
v  -5.2379 0.0000 -9.5993
v  -11.6905 2.7676 -8.4415
v  -11.8042 0.0000 -8.4415
v  -15.9356 2.1782 -3.3338
v  -16.0901 0.0000 -3.3338
v  -15.9356 2.1782 3.3338
v  -16.0901 0.0000 3.3338
v  -11.6905 2.7676 8.4415
v  -11.8042 0.0000 8.4415
v  -5.1866 3.6705 9.5993
v  -5.2379 0.0000 9.5993
v  0.5329 4.4645 6.2655
v  0.5364 0.0000 6.2655
v  -6.9305 0.0000 0.0000
v  -7.0654 4.8947 0.0000
# 40 vertices

vn 0.7497 0.0517 -0.6597
vn 0.9962 0.0871 0.0033
vn 0.9962 0.0870 0.0030
vn 0.7729 0.0483 -0.6326
vn 0.1358 0.0059 -0.9907
vn 0.1788 0.0059 -0.9839
vn -0.5281 -0.0030 -0.8492
vn -0.5008 -0.0006 -0.8656
vn -0.9437 0.0041 -0.3308
vn -0.9398 0.0055 -0.3416
vn -0.9442 0.0056 0.3295
vn -0.9404 0.0040 0.3401
vn -0.5268 -0.0006 0.8500
vn -0.4999 -0.0029 0.8661
vn 0.1390 0.0048 0.9903
vn 0.1823 0.0074 0.9832
vn 0.7488 0.0467 0.6611
vn 0.7725 0.0534 0.6328
vn 0.0000 -1.0000 -0.0000
vn 0.2938 0.9559 0.0000
vn 0.2593 0.9610 -0.0959
vn 0.1479 0.9890 0.0000
vn 0.1718 0.9741 -0.1469
vn 0.0724 0.9890 -0.1292
vn 0.0075 0.9987 -0.0510
vn 0.0075 0.9987 0.0510
vn 0.0724 0.9890 0.1292
vn 0.1718 0.9741 0.1469
vn 0.2593 0.9610 0.0959
vn 0.7801 0.0015 -0.6257
vn 1.0000 0.0044 0.0008
vn 1.0000 0.0044 0.0009
vn 0.7670 -0.0007 -0.6416
vn 0.2057 -0.0013 -0.9786
vn 0.1700 -0.0017 -0.9854
vn -0.4742 0.0186 -0.8802
vn -0.5091 0.0234 -0.8604
vn -0.9329 0.0631 -0.3546
vn -0.9394 0.0666 -0.3364
vn -0.9342 0.0662 0.3507
vn -0.9407 0.0636 0.3332
vn -0.4730 0.0217 0.8808
vn -0.5073 0.0200 0.8615
vn 0.2082 -0.0023 0.9781
vn 0.1722 -0.0009 0.9851
vn 0.7800 -0.0006 0.6258
vn 0.7667 0.0015 0.6420
vn 0.0118 0.9999 0.0000
vn -0.0228 0.9951 -0.0959
vn -0.1375 0.9905 -0.0000
vn -0.1103 0.9830 -0.1469
vn -0.2099 0.9692 -0.1292
vn -0.2749 0.9601 -0.0510
vn -0.2749 0.9601 0.0510
vn -0.2099 0.9692 0.1292
vn -0.1103 0.9830 0.1469
vn -0.0228 0.9951 0.0959
# 57 vertex normals

vt 0.8611 1.0000 1.0000
vt 0.7500 1.0000 1.0000
vt 0.7500 0.0000 1.0000
vt 0.8611 0.0000 1.0000
vt 0.9722 1.0000 1.0000
vt 0.9722 0.0000 1.0000
vt 1.0833 1.0000 1.0000
vt 1.0833 0.0000 1.0000
vt 0.1944 1.0000 1.0000
vt 0.0833 1.0000 1.0000
vt 0.0833 0.0000 1.0000
vt 0.1944 0.0000 1.0000
vt 0.3056 1.0000 1.0000
vt 0.3056 0.0000 1.0000
vt 0.4167 1.0000 1.0000
vt 0.4167 0.0000 1.0000
vt 0.5278 1.0000 1.0000
vt 0.5278 0.0000 1.0000
vt 0.6389 1.0000 1.0000
vt 0.6389 0.0000 1.0000
vt 0.1786 0.8830 -0.2500
vt 0.5000 1.0000 -0.2500
vt 0.5000 0.5000 -0.2500
vt 0.0076 0.5868 -0.2500
vt 0.0670 0.2500 -0.2500
vt 0.3290 0.0302 -0.2500
vt 0.6710 0.0302 -0.2500
vt 0.9330 0.2500 -0.2500
vt 0.9924 0.5868 -0.2500
vt 0.8214 0.8830 -0.2500
vt 0.5000 1.0000 0.2500
vt 0.1786 0.8830 0.2500
vt 0.5000 0.5000 0.2500
vt 0.0076 0.5868 0.2500
vt 0.0670 0.2500 0.2500
vt 0.3290 0.0302 0.2500
vt 0.6710 0.0302 0.2500
vt 0.9330 0.2500 0.2500
vt 0.9924 0.5868 0.2500
vt 0.8214 0.8830 0.2500
# 40 texture coords

g LiShi2Ge
s 4
f 1/1/1 2/2/2 3/3/3 4/4/4 
f 5/5/5 1/1/1 4/4/4 6/6/6 
f 7/7/7 5/5/5 6/6/6 8/8/8 
f 9/9/9 7/10/7 8/11/8 10/12/10 
f 11/13/11 9/9/9 10/12/10 12/14/12 
f 13/15/13 11/13/11 12/14/12 14/16/14 
f 15/17/15 13/15/13 14/16/14 16/18/16 
f 17/19/17 15/17/15 16/18/16 18/20/18 
f 2/2/2 17/19/17 18/20/18 3/3/3 
s 1
f 4/21/19 3/22/19 19/23/19 
f 6/24/19 4/21/19 19/23/19 
f 8/25/19 6/24/19 19/23/19 
f 10/26/19 8/25/19 19/23/19 
f 12/27/19 10/26/19 19/23/19 
f 14/28/19 12/27/19 19/23/19 
f 16/29/19 14/28/19 19/23/19 
f 18/30/19 16/29/19 19/23/19 
f 3/22/19 18/30/19 19/23/19 
f 2/31/20 1/32/21 20/33/22 
f 1/32/21 5/34/23 20/33/22 
f 5/34/23 7/35/24 20/33/22 
f 7/35/24 9/36/25 20/33/22 
f 9/36/25 11/37/26 20/33/22 
f 11/37/26 13/38/27 20/33/22 
f 13/38/27 15/39/28 20/33/22 
f 15/39/28 17/40/29 20/33/22 
f 17/40/29 2/31/20 20/33/22 
s 4
f 21/1/30 22/2/31 23/3/32 24/4/33 
f 25/5/34 21/1/30 24/4/33 26/6/35 
f 27/7/36 25/5/34 26/6/35 28/8/37 
f 29/9/38 27/10/36 28/11/37 30/12/39 
f 31/13/40 29/9/38 30/12/39 32/14/41 
f 33/15/42 31/13/40 32/14/41 34/16/43 
f 35/17/44 33/15/42 34/16/43 36/18/45 
f 37/19/46 35/17/44 36/18/45 38/20/47 
f 22/2/31 37/19/46 38/20/47 23/3/32 
s 1
f 24/21/19 23/22/19 39/23/19 
f 26/24/19 24/21/19 39/23/19 
f 28/25/19 26/24/19 39/23/19 
f 30/26/19 28/25/19 39/23/19 
f 32/27/19 30/26/19 39/23/19 
f 34/28/19 32/27/19 39/23/19 
f 36/29/19 34/28/19 39/23/19 
f 38/30/19 36/29/19 39/23/19 
f 23/22/19 38/30/19 39/23/19 
f 22/31/48 21/32/49 40/33/50 
f 21/32/49 25/34/51 40/33/50 
f 25/34/51 27/35/52 40/33/50 
f 27/35/52 29/36/53 40/33/50 
f 29/36/53 31/37/54 40/33/50 
f 31/37/54 33/38/55 40/33/50 
f 33/38/55 35/39/56 40/33/50 
f 35/39/56 37/40/57 40/33/50 
f 37/40/57 22/31/48 40/33/50 
# 18 polygons - 36 triangles

