# 3ds Max Wavefront OBJ Exporter v0.97b - (c)2007 guruware
# 创建的文件:18.11.2022 13:42:51

#
# object GeBiDiKuai
#

v  70.0000 0.0000 -0.0000
v  35.0000 0.0000 -60.6218
v  35.0000 50.0114 -60.6218
v  70.0000 49.9705 -0.0000
v  -35.0000 0.0000 -60.6218
v  -35.0000 50.0114 -60.6218
v  -70.0000 0.0000 -0.0000
v  -70.0000 50.0114 -0.0000
v  -35.0000 0.0000 60.6218
v  -35.0000 50.0114 60.6218
v  35.0000 0.0000 60.6218
v  35.0000 50.0114 60.6218
v  33.8655 51.6225 -58.6567
v  67.7310 51.4243 -0.0000
v  -33.8655 51.6225 -58.6567
v  -67.7310 51.6225 -0.0000
v  -33.8655 51.6225 58.6567
v  33.8655 51.6225 58.6567
v  33.6948 64.1110 -58.3611
v  16.8474 61.9914 -58.3611
v  21.0592 64.1110 -36.4757
v  42.1185 64.1110 -43.7708
v  0.0000 64.1110 -58.3611
v  0.0000 64.1110 -29.1805
v  0.0000 65.8425 -0.0000
v  25.2711 65.4987 -14.5903
v  50.5422 64.1110 -29.1805
v  -33.6948 62.2777 -58.3611
v  -42.1185 64.1110 -43.7708
v  -21.0592 64.5952 -36.4757
v  -16.8474 64.1110 -58.3611
v  -50.5422 62.8987 -29.1805
v  -25.2711 65.5605 -14.5903
v  -67.3896 62.8987 -0.0000
v  -58.9659 64.1110 14.5903
v  -42.1185 65.2162 -0.0000
v  -58.9659 61.4145 -14.5903
v  -50.5422 64.1110 29.1805
v  -25.2711 65.9731 14.5903
v  -33.6948 64.1110 58.3611
v  -16.8474 62.2796 58.3611
v  -21.0592 64.4626 36.4757
v  -42.1185 64.1110 43.7708
v  0.0000 61.4585 58.3611
v  0.0000 63.8987 29.1805
v  33.6948 64.1110 58.3611
v  42.1185 64.1110 43.7708
v  21.0592 63.8487 36.4757
v  16.8474 62.2796 58.3611
v  50.5422 64.1110 29.1805
v  25.2711 64.1091 14.5903
v  67.3896 62.2604 -0.0000
v  58.9659 64.1091 -14.5903
v  42.1185 63.7909 -0.0000
v  58.9659 64.1091 14.5903
v  -42.5705 39.5581 43.5791
v  -33.8655 39.5581 58.6567
v  16.4267 39.5581 58.6567
v  33.8655 39.5581 58.6567
v  58.9859 39.4111 15.1469
v  67.7310 39.3599 -0.0000
v  42.4918 39.5076 -43.7155
v  33.8655 39.5581 -58.6567
v  -16.5577 39.5581 -58.6567
v  -33.8655 39.5581 -58.6567
v  -59.2185 39.5581 -14.7440
v  -67.7310 39.5581 -0.0000
v  -50.8620 39.5581 29.2180
v  -59.1487 39.5581 14.8649
v  -16.5038 39.5581 58.6567
v  0.6857 39.5581 58.6567
v  42.5172 39.5075 43.6716
v  50.5734 39.4603 29.7178
v  59.1598 39.4101 -14.8457
v  50.9679 39.4580 -29.0346
v  17.0779 39.5581 -58.6567
v  0.2609 39.5581 -58.6567
v  -42.4792 39.5581 -43.7374
v  -50.7421 39.5581 -29.4255
# 79 vertices

vn 0.8660 0.0000 -0.5000
vn 0.0000 0.0000 -1.0000
vn -0.8660 0.0000 -0.5000
vn 0.0000 0.0000 1.0000
vn 0.8660 0.0000 0.5000
vn 0.0000 -1.0000 -0.0000
vn 0.5333 0.7886 -0.3063
vn 0.0000 0.7733 -0.6340
vn -0.5491 0.7733 -0.3170
vn -0.5491 0.7733 0.3170
vn 0.0000 0.7733 0.6340
vn 0.5333 0.7886 0.3063
vn -0.0627 0.9974 -0.0362
vn 0.0471 0.9979 -0.0453
vn -0.0206 0.9980 -0.0593
vn 0.0103 0.9991 -0.0416
vn -0.0457 0.9958 -0.0791
vn -0.0610 0.9980 -0.0144
vn 0.0282 0.9983 -0.0504
vn 0.0144 0.9999 -0.0083
vn -0.0909 0.9916 -0.0916
vn -0.0552 0.9982 0.0219
vn -0.0149 0.9998 -0.0141
vn -0.1220 0.9916 -0.0435
vn 0.0473 0.9979 0.0433
vn 0.0528 0.9949 0.0857
vn 0.0450 0.9970 0.0637
vn -0.0242 0.9985 0.0497
vn -0.0594 0.9980 0.0223
vn -0.0078 1.0000 0.0044
vn 0.0174 0.9989 0.0445
vn -0.0348 0.9965 0.0754
vn 0.0605 0.9982 0.0000
vn 0.0412 0.9989 0.0228
vn 0.0486 0.9977 0.0475
vn 0.0000 0.9999 -0.0110
vn -0.8660 0.0120 0.5000
vn -0.0007 0.0125 0.9999
vn 0.8663 0.0124 0.4994
vn 0.8660 0.0120 -0.4999
vn -0.0007 0.0125 -0.9999
vn -0.8657 0.0131 -0.5005
vn -0.8662 0.0123 0.4996
vn 0.0007 0.0125 0.9999
vn 0.0003 0.0133 0.9999
vn -0.0003 0.0132 0.9999
vn 0.8660 0.0120 0.4999
vn 0.8663 0.0124 -0.4994
vn -0.0008 0.0126 -0.9999
vn 0.0008 0.0126 -0.9999
vn 0.0000 0.0120 -0.9999
vn -0.8656 0.0125 -0.5005
vn -0.8662 0.0123 -0.4996
vn -0.8662 0.0131 -0.4995
# 54 vertex normals

vt 0.6642 0.0184 0.0000
vt 0.8262 0.0186 0.0000
vt 0.8255 0.2907 0.0000
vt 0.6639 0.2903 0.0000
vt 0.9883 0.0190 1.0000
vt 0.9874 0.2913 0.0000
vt 0.0162 0.0190 1.0000
vt 0.1782 0.0186 0.0000
vt 0.1789 0.2907 0.0000
vt 0.0170 0.2913 0.0000
vt 0.3402 0.0184 0.0000
vt 0.3406 0.2904 0.0000
vt 0.5022 0.0183 0.0000
vt 0.5022 0.2903 0.0000
vt 0.5138 0.7814 -0.2500
vt 0.7500 0.9178 -0.2500
vt 0.7500 0.3724 -0.2500
vt 0.5138 0.5087 -0.2500
vt 0.8255 0.2962 0.0000
vt 0.6639 0.2957 0.0000
vt 0.9848 0.2969 0.0000
vt 0.1790 0.2962 0.0000
vt 0.0197 0.2969 0.0000
vt 0.3406 0.2960 0.0000
vt 0.5022 0.2959 0.0000
vt 0.9861 0.7814 -0.2500
vt 0.9861 0.5087 -0.2500
vt 0.0136 0.7905 0.2500
vt 0.0136 0.7223 0.2500
vt 0.1022 0.7394 0.2500
vt 0.0727 0.8246 0.2500
vt 0.0136 0.6542 0.2500
vt 0.1317 0.6542 0.2500
vt 0.2498 0.6542 0.2500
vt 0.1908 0.7564 0.2500
vt 0.1317 0.8587 0.2500
vt 0.0136 0.5178 0.2500
vt 0.0727 0.4837 0.2500
vt 0.1022 0.5690 0.2500
vt 0.0136 0.5860 0.2500
vt 0.1317 0.4497 0.2500
vt 0.1908 0.5519 0.2500
vt 0.2498 0.3815 0.2500
vt 0.3088 0.4156 0.2500
vt 0.2498 0.4837 0.2500
vt 0.1908 0.4156 0.2500
vt 0.3679 0.4497 0.2500
vt 0.3088 0.5519 0.2500
vt 0.4860 0.5178 0.2500
vt 0.4860 0.5860 0.2500
vt 0.3974 0.5690 0.2500
vt 0.4269 0.4837 0.2500
vt 0.4860 0.6542 0.2500
vt 0.3679 0.6542 0.2500
vt 0.4860 0.7905 0.2500
vt 0.4269 0.8246 0.2500
vt 0.3974 0.7394 0.2500
vt 0.4860 0.7223 0.2500
vt 0.3679 0.8587 0.2500
vt 0.3088 0.7564 0.2500
vt 0.2498 0.9269 0.2500
vt 0.1908 0.8928 0.2500
vt 0.2498 0.8246 0.2500
vt 0.3088 0.8928 0.2500
vt 0.3002 0.3240 0.0000
vt 0.2991 0.2961 0.0000
vt 0.3405 0.3239 0.0000
vt 0.4618 0.3198 0.0000
vt 0.4606 0.2959 0.0000
vt 0.5021 0.3238 0.0000
vt 0.6235 0.3241 0.0000
vt 0.6221 0.2958 0.0000
vt 0.6638 0.3199 0.0000
vt 0.7850 0.3241 0.0000
vt 0.7843 0.2961 0.0000
vt 0.8253 0.3240 0.0000
vt 0.9447 0.3243 0.0000
vt 0.9441 0.2967 0.0000
vt 0.9843 0.3204 0.0000
vt 0.1393 0.3181 0.0000
vt 0.1390 0.2964 0.0000
vt 0.1790 0.3212 0.0000
vt 0.2598 0.3241 0.0000
vt 0.2595 0.2961 0.0000
vt 0.2194 0.3242 0.0000
vt 0.2200 0.2961 0.0000
vt 0.3811 0.3200 0.0000
vt 0.3820 0.2960 0.0000
vt 0.4215 0.3181 0.0000
vt 0.4230 0.2959 0.0000
vt 0.5435 0.2958 0.0000
vt 0.5427 0.3241 0.0000
vt 0.5820 0.2958 0.0000
vt 0.5831 0.3241 0.0000
vt 0.7048 0.2958 0.0000
vt 0.7044 0.3242 0.0000
vt 0.7439 0.2959 0.0000
vt 0.7448 0.3241 0.0000
vt 0.8654 0.3195 0.0000
vt 0.8650 0.2964 0.0000
vt 0.9045 0.2965 0.0000
vt 0.9050 0.3242 0.0000
vt 0.0202 0.3204 0.0000
vt 0.0602 0.2967 0.0000
vt 0.0599 0.3243 0.0000
vt 0.0996 0.3215 0.0000
vt 0.0991 0.2966 0.0000
# 107 texture coords

g GeBiDiKuai
s off
f 1/1/1 2/2/1 3/3/1 4/4/1 
f 2/2/2 5/5/2 6/6/2 3/3/2 
f 5/7/3 7/8/3 8/9/3 6/10/3 
f 7/8/4 9/11/4 10/12/4 8/9/4 
f 9/11/5 11/13/5 12/14/5 10/12/5 
f 11/13/6 1/1/6 4/4/6 12/14/6 
f 2/15/7 1/16/7 7/17/7 5/18/7 
f 3/3/8 13/19/8 14/20/8 4/4/8 
f 6/6/9 15/21/9 13/19/9 3/3/9 
f 8/9/10 16/22/10 15/23/10 6/10/10 
f 10/12/11 17/24/11 16/22/11 8/9/11 
f 12/14/12 18/25/12 17/24/12 10/12/12 
f 4/4/12 14/20/12 18/25/12 12/14/12 
f 1/16/7 11/26/6 9/27/6 7/17/7 
f 19/28/13 20/29/13 21/30/13 22/31/13 
f 23/32/14 24/33/14 21/30/14 20/29/14 
f 24/33/15 25/34/15 26/35/15 21/30/15 
f 27/36/16 22/31/16 21/30/16 26/35/16 
f 28/37/17 29/38/17 30/39/17 31/40/17 
f 32/41/18 33/42/18 30/39/18 29/38/18 
f 33/42/19 25/34/19 24/33/19 30/39/19 
f 23/32/20 31/40/20 30/39/20 24/33/20 
f 34/43/21 35/44/21 36/45/21 37/46/21 
f 38/47/22 39/48/22 36/45/22 35/44/22 
f 39/48/23 25/34/23 33/42/23 36/45/23 
f 32/41/24 37/46/24 36/45/24 33/42/24 
f 40/49/25 41/50/25 42/51/25 43/52/25 
f 44/53/26 45/54/26 42/51/26 41/50/26 
f 45/54/27 25/34/27 39/48/27 42/51/27 
f 38/47/28 43/52/28 42/51/28 39/48/28 
f 46/55/29 47/56/29 48/57/29 49/58/29 
f 50/59/30 51/60/30 48/57/30 47/56/30 
f 51/60/31 25/34/31 45/54/31 48/57/31 
f 44/53/32 49/58/32 48/57/32 45/54/32 
f 52/61/33 53/62/33 54/63/33 55/64/33 
f 27/36/34 26/35/34 54/63/34 53/62/34 
f 26/35/35 25/34/35 51/60/35 54/63/35 
f 50/59/36 55/64/36 54/63/36 51/60/36 
f 43/65/37 56/66/37 57/24/37 40/67/37 
f 49/68/38 58/69/38 59/25/38 46/70/38 
f 55/71/39 60/72/39 61/20/39 52/73/39 
f 22/74/40 62/75/40 63/19/40 19/76/40 
f 31/77/41 64/78/41 65/21/41 28/79/41 
f 37/80/42 66/81/42 67/22/42 34/82/42 
f 38/83/37 68/84/37 56/66/37 43/65/37 
f 35/85/37 69/86/37 68/84/37 38/83/37 
f 35/85/43 34/82/43 67/22/43 69/86/43 
f 41/87/44 40/67/44 57/24/44 70/88/44 
f 44/89/45 41/87/45 70/88/45 71/90/45 
f 44/89/46 71/90/46 58/69/46 49/68/46 
f 46/70/47 59/25/47 72/91/47 47/92/47 
f 47/92/47 72/91/47 73/93/47 50/94/47 
f 55/71/47 50/94/47 73/93/47 60/72/47 
f 52/73/48 61/20/48 74/95/48 53/96/48 
f 53/96/40 74/95/40 75/97/40 27/98/40 
f 27/98/40 75/97/40 62/75/40 22/74/40 
f 20/99/49 19/76/49 63/19/49 76/100/49 
f 20/99/50 76/100/50 77/101/50 23/102/50 
f 31/77/51 23/102/51 77/101/51 64/78/51 
f 28/103/52 65/23/52 78/104/52 29/105/52 
f 32/106/53 29/105/53 78/104/53 79/107/53 
f 37/80/54 32/106/54 79/107/54 66/81/54 
# 62 polygons

