# 3ds Max Wavefront OBJ Exporter v0.97b - (c)2007 guruware
# 创建的文件:18.11.2022 11:45:47

#
# object 对象009
#

v  0.0000 88.4786 -0.0000
v  43.6275 30.9143 -0.0000
v  13.4816 30.9143 -41.4922
v  -35.2954 30.9143 -25.6436
v  -35.2954 30.9143 25.6436
v  13.4816 30.9143 41.4922
v  -10.1015 26.8630 -31.0965
v  12.4888 26.8630 -38.4365
v  40.4145 26.8630 0.0000
v  12.4888 26.8630 38.4365
v  -32.6960 26.8630 -23.7551
v  -32.6960 26.8630 23.7551
v  0.0000 109.1815 -0.0000
v  29.0250 70.8845 -0.0000
v  8.9692 70.8845 -27.6044
v  -23.4817 70.8845 -17.0605
v  -23.4817 70.8845 17.0605
v  8.9692 70.8845 27.6044
v  -21.7524 68.1892 15.8040
v  -21.7524 68.1892 -15.8040
v  17.7540 68.1892 12.5711
v  8.3087 68.1892 25.5715
v  8.3087 68.1892 -25.5715
v  26.8874 68.1892 0.0000
v  0.0000 128.7637 -0.0000
v  20.3584 101.9018 -0.0000
v  6.2911 101.9018 -19.3620
v  -16.4703 101.9018 -11.9664
v  -16.4703 101.9018 11.9664
v  6.2911 101.9018 19.3620
v  -4.3413 100.0113 -14.6319
v  5.8278 100.0113 -17.9361
v  18.8591 100.0113 0.0000
v  5.8278 100.0113 17.9361
v  -15.2574 100.0113 -11.0851
v  -15.2573 100.0113 11.0851
v  8.0063 32.4239 -0.0000
v  10.8477 0.0000 -0.0000
v  -0.0000 0.0000 -10.8477
v  -0.0000 32.4239 -8.0063
v  -10.8477 0.0000 0.0000
v  -8.0063 32.4239 0.0000
v  0.0000 0.0000 10.8477
v  0.0000 32.4239 8.0063
# 44 vertices

vn 0.6897 0.5227 -0.5011
vn -0.2634 0.5227 -0.8108
vn -0.8525 0.5227 0.0000
vn -0.2634 0.5227 0.8108
vn 0.6897 0.5227 0.5011
vn 0.0000 -1.0000 -0.0000
vn 1.0000 0.0000 -0.0000
vn 0.6809 -0.5400 -0.4947
vn -0.2601 -0.5400 -0.8005
vn -0.8417 -0.5400 0.0000
vn -0.2601 -0.5400 0.8005
vn 0.6809 -0.5400 0.4947
vn 0.7058 0.0618 -0.7058
vn -0.7058 0.0618 -0.7058
vn -0.7058 0.0618 0.7058
vn 0.7058 0.0618 0.7058
# 16 vertex normals

vt 0.0652 0.3271 0.0000
vt 0.1423 0.0188 0.9342
vt 0.2040 0.0188 0.9342
vt 0.2302 0.3271 -0.0000
vt 0.3952 0.3271 -0.0000
vt 0.5340 0.0188 0.9342
vt 0.1223 0.0188 0.9342
vt 0.0190 0.0188 0.9342
vt 0.0806 0.0188 0.9342
vt 0.5551 0.1929 -0.2500
vt 0.5136 0.3205 -0.2500
vt 0.7247 0.4738 -0.2500
vt 0.9357 0.3205 -0.2500
vt 0.4851 0.3421 -0.2500
vt 0.7129 0.5076 -0.2500
vt 0.4778 0.3198 -0.2500
vt 0.5942 0.0724 -0.2500
vt 0.5649 0.0519 -0.2500
vt 0.8551 0.0724 -0.2500
vt 0.8655 0.0381 -0.2500
vt 0.5839 0.0381 -0.2500
vt 0.9715 0.3198 -0.2500
vt 0.8845 0.0519 -0.2500
vt 0.7364 0.5076 -0.2500
vt 0.9643 0.3421 -0.2500
vt 0.8284 0.3984 -0.2500
vt 0.5525 0.2008 -0.2500
vt 0.7447 0.9482 0.0000
vt 0.7891 0.5536 1.0000
vt 0.9734 0.5859 0.0000
vt 0.8808 0.9720 0.0000
vt 0.3336 0.9784 0.0000
vt 0.2320 0.5946 0.0000
vt 0.4155 0.5579 0.0000
vt 0.4690 0.9514 0.0000
vt 0.6022 0.5442 0.0000
vt 0.6068 0.9412 0.0000
vt 0.1954 0.4111 -0.2500
vt 0.3789 0.3744 0.0000
# 39 texture coords

g 对象009
s off
f 1/1/1 1/1/1 2/2/1 3/3/1 
f 1/4/2 1/5/2 3/6/2 4/7/2 
f 1/1/3 1/4/3 4/7/3 5/8/3 
f 5/8/4 6/9/4 1/1/4 1/1/4 
f 6/9/5 2/2/5 1/1/5 1/1/5 
f 7/10/6 8/11/6 9/12/6 10/13/6 
f 1/1/7 1/1/7 1/1/7 1/4/7 
f 1/1/7 1/4/7 1/1/7 
f 8/11/8 3/14/8 2/15/8 9/12/8 
f 3/16/9 8/11/9 7/10/9 11/17/9 
f 3/16/9 11/17/9 4/18/9 
f 12/19/10 5/20/10 4/21/10 11/17/10 
f 10/13/11 6/22/11 5/23/11 12/19/11 
f 9/12/12 2/24/12 6/25/12 10/13/12 
f 7/10/6 10/13/6 12/19/6 11/17/6 
f 13/1/1 13/1/1 14/2/1 15/3/1 
f 13/4/2 13/5/2 15/6/2 16/7/2 
f 13/1/3 13/4/3 16/7/3 17/8/3 
f 17/8/4 18/9/4 13/1/4 13/1/4 
f 18/9/5 14/2/5 13/1/5 13/1/5 
f 19/19/6 20/17/6 21/26/6 22/13/6 
f 13/1/7 13/1/7 13/1/7 13/4/7 
f 13/1/7 13/4/7 13/1/7 
f 23/11/8 15/14/8 14/15/8 24/12/8 
f 20/17/9 16/18/9 15/16/9 23/11/9 
f 19/19/10 17/20/10 16/21/10 20/17/10 
f 22/13/11 18/22/11 17/23/11 19/19/11 
f 18/25/12 22/13/12 21/26/12 24/12/12 
f 18/25/12 24/12/12 14/24/12 
f 21/26/6 20/17/6 23/11/6 24/12/6 
f 25/1/1 25/1/1 26/2/1 27/3/1 
f 25/4/2 25/5/2 27/6/2 28/7/2 
f 25/1/3 25/4/3 28/7/3 29/8/3 
f 29/8/4 30/9/4 25/1/4 25/1/4 
f 30/9/5 26/2/5 25/1/5 25/1/5 
f 31/27/6 32/11/6 33/12/6 34/13/6 
f 25/1/7 25/1/7 25/1/7 25/4/7 
f 25/1/7 25/4/7 25/1/7 
f 32/11/8 27/14/8 26/15/8 33/12/8 
f 27/16/9 32/11/9 31/27/9 35/17/9 
f 27/16/9 35/17/9 28/18/9 
f 36/19/10 29/20/10 28/21/10 35/17/10 
f 34/13/11 30/22/11 29/23/11 36/19/11 
f 33/12/12 26/24/12 30/25/12 34/13/12 
f 31/27/6 34/13/6 36/19/6 35/17/6 
f 37/28/13 38/29/13 39/30/13 40/31/13 
f 40/32/14 39/33/14 41/34/14 42/35/14 
f 42/35/15 41/34/15 43/36/15 44/37/15 
f 44/37/16 43/36/16 38/29/16 37/28/16 
f 38/38/6 43/39/6 41/34/6 39/33/6 
# 44 polygons - 6 triangles

